<svg version="1.1" id="Layer_1" xmlns="http://www.w3.org/2000/svg" xmlns:xlink="http://www.w3.org/1999/xlink" x="0px" y="0px"
	 width="100%" viewBox="0 0 800 592" enable-background="new 0 0 800 592" xml:space="preserve">
<path fill="#ffffff" opacity="1.000000" stroke="none" 
	d="
M184.893372,112.718185 
	C205.345276,115.353958 211.773972,130.309570 210.178085,149.310745 
	C209.217651,160.746140 207.948822,172.172638 207.498093,183.629868 
	C206.817841,200.920670 204.930954,218.162415 205.336227,236.974777 
	C207.447098,231.030060 208.929779,226.310837 210.789719,221.745300 
	C213.494156,215.106766 216.367767,208.514786 221.923798,203.602509 
	C230.923141,195.645889 241.681915,197.218506 247.546265,207.655579 
	C254.215393,219.524963 256.223969,232.670776 257.325928,246.016541 
	C258.405334,259.089386 259.200195,272.204163 262.256775,285.025909 
	C263.230469,289.110382 264.159027,293.845459 268.574158,295.121735 
	C273.031128,296.410156 276.369934,292.707703 279.152008,289.757538 
	C284.475891,284.111969 288.760712,278.483307 289.109070,269.527435 
	C289.828949,251.020569 305.249054,235.629608 325.471436,230.684036 
	C332.824432,228.885788 340.256409,228.034836 347.752228,229.062683 
	C351.285553,229.547180 352.264191,227.903854 352.513947,225.037216 
	C352.745728,222.377396 352.891815,219.687347 352.148621,217.087860 
	C351.042603,213.219284 352.534393,211.712616 356.426239,211.272873 
	C365.092285,210.293671 373.426178,211.395065 381.234467,215.126587 
	C389.717621,219.180634 393.191956,226.789780 394.321594,235.655182 
	C395.485809,244.791977 394.326324,253.913513 393.687134,263.011566 
	C392.935944,273.703033 393.243835,284.316223 395.449493,294.786377 
	C397.086609,302.557892 401.271729,303.910095 406.903564,298.394073 
	C416.023285,289.462006 423.441315,279.069763 428.660553,267.510162 
	C430.947174,262.445740 430.625061,256.141632 431.181274,250.370926 
	C432.279938,238.972412 435.128143,227.751083 434.679199,216.198669 
	C434.570099,213.390900 434.366943,210.586792 434.208252,207.802658 
	C443.157379,203.176910 456.726929,205.867905 464.619995,213.607483 
	C473.270325,222.089584 472.518402,233.561737 474.386047,244.608490 
	C477.865448,241.730881 479.492493,237.978394 482.101501,235.026550 
	C484.761261,232.017303 487.429779,229.063766 491.000488,227.090088 
	C498.621216,222.877823 504.780823,226.017365 506.350433,234.559570 
	C507.884369,242.907669 506.856049,251.112869 505.923920,259.383240 
	C505.086548,266.812256 503.943237,274.231628 504.322510,281.751770 
	C504.420624,283.697571 503.778290,286.116943 505.983063,287.127350 
	C508.393402,288.231995 510.013702,286.120483 511.560028,284.735168 
	C516.975769,279.883362 520.718872,273.769501 524.161377,267.462616 
	C528.471069,259.567047 532.780457,251.670700 536.994324,243.723969 
	C538.483765,240.915161 540.186890,239.614197 543.323914,241.487915 
	C544.929199,242.446762 545.479858,243.481354 544.566162,245.129578 
	C536.190247,260.239655 529.979248,276.645081 518.284668,289.769562 
	C514.389832,294.140594 509.985291,298.663452 503.328613,296.527893 
	C496.365326,294.293945 496.418213,287.613525 495.945038,281.967255 
	C495.206909,273.158630 496.695190,264.369751 497.305054,255.574753 
	C497.686890,250.068878 498.428558,244.506256 496.679962,238.694427 
	C492.627930,240.076813 491.614624,243.270416 490.230255,245.934174 
	C482.265320,261.260193 477.816071,277.826416 473.356110,294.386719 
	C471.362854,301.787964 469.444733,309.191071 463.339081,314.648865 
	C451.283752,325.424988 434.136902,320.715393 429.566681,305.323914 
	C428.295258,301.041992 427.955444,296.596344 427.185822,292.203827 
	C424.314758,292.050476 423.785034,294.390900 422.656921,295.822662 
	C411.635315,309.810883 399.022461,321.686859 381.228027,326.395813 
	C360.748627,331.815216 347.645599,321.999084 346.747375,300.643738 
	C346.482697,294.351318 346.706604,288.038361 346.706604,280.866394 
	C330.322815,293.493927 313.751343,300.753815 294.251862,288.492554 
	C289.937622,293.473969 286.319214,299.082916 281.361176,303.511963 
	C278.598175,305.980133 275.753357,308.314270 272.088593,309.176575 
	C264.751678,310.902954 258.477295,307.094696 254.943161,298.810883 
	C249.925339,287.049408 247.940308,274.603394 246.646820,261.984467 
	C245.612595,251.894806 244.363052,241.824753 240.920517,232.187881 
	C240.640579,231.404236 240.469772,230.560028 240.067917,229.845337 
	C238.473022,227.008835 237.487335,223.178925 233.341599,223.376419 
	C229.255676,223.571060 228.278000,227.194077 227.226425,230.365448 
	C223.167740,242.605682 222.479843,255.467834 220.343674,268.062866 
	C218.039825,281.646667 216.701172,295.478912 209.781372,307.842133 
	C205.220886,315.990143 199.169128,322.287689 189.756439,324.698334 
	C181.088043,326.918365 174.279770,324.132874 169.864853,316.395630 
	C165.662354,309.030609 163.777023,300.954254 162.742294,292.657715 
	C160.220215,272.435913 160.417404,252.114304 160.924789,231.805267 
	C161.140182,223.183594 162.049561,214.579239 161.946808,205.682770 
	C159.740524,209.474564 157.576736,213.291824 155.320724,217.053787 
	C144.896210,234.436813 131.905502,249.416687 114.473404,260.134613 
	C111.431442,262.004944 110.239861,264.291351 110.268661,267.888550 
	C110.393929,283.534180 110.043152,299.186493 112.228569,314.750092 
	C112.627701,317.592560 113.056877,320.507538 114.530106,322.850861 
	C116.624084,326.181610 115.482918,328.588928 113.140381,330.769470 
	C104.740181,338.588837 94.785576,342.722015 83.262032,342.368256 
	C76.921074,342.173584 73.096886,337.919800 70.178093,332.791260 
	C64.522537,322.854034 62.777908,311.855865 61.755733,300.708008 
	C60.507099,287.090454 60.625626,273.429016 60.665726,259.770111 
	C60.724422,239.776352 62.713776,219.918579 64.465820,200.030945 
	C65.852028,184.295914 66.706001,168.511429 67.627968,152.739044 
	C68.150505,143.799820 69.769455,134.860718 67.891083,125.876686 
	C67.526367,124.132294 68.620613,122.995636 70.392693,122.817131 
	C82.175331,121.630211 93.869736,121.712212 103.958473,128.974060 
	C115.719696,137.439789 116.857079,150.043350 115.839615,163.066788 
	C115.413971,168.515015 115.310783,173.916306 116.277756,179.821671 
	C117.728828,177.534805 119.188377,175.253250 120.629402,172.960068 
	C125.019997,165.973129 130.122101,159.659271 137.466965,155.548874 
	C146.874298,150.284225 156.129395,150.109589 165.759827,157.403717 
	C167.499863,142.383163 168.196487,128.072983 167.582123,113.728737 
	C173.309738,110.868347 178.908447,112.170212 184.893372,112.718185 
M150.148834,177.040421 
	C150.592575,172.267441 150.744431,167.034882 145.723923,164.911713 
	C140.757568,162.811447 137.943680,167.422363 135.239395,170.672379 
	C131.151978,175.584641 128.627823,181.432480 126.381584,187.340744 
	C120.289551,203.364532 116.510689,220.052795 112.584991,236.687805 
	C112.125252,238.635941 111.552483,240.844284 112.770554,242.883514 
	C126.993950,236.486313 147.374069,200.697861 150.148834,177.040421 
M334.601410,247.087540 
	C323.444611,249.958328 317.231049,257.961456 318.900848,267.309845 
	C319.904846,272.930603 322.497345,274.724609 327.977570,273.590942 
	C340.960083,270.905212 350.457703,258.726227 349.975800,244.898346 
	C345.009430,244.768646 340.184998,245.745255 334.601410,247.087540 
z"/>
<path fill="#ffffff" opacity="1.000000" stroke="none" 
	d="
M592.113770,197.847015 
	C590.299988,227.291412 591.339417,256.289093 591.531738,285.273041 
	C591.570801,291.168091 592.385437,297.245056 594.702820,302.880280 
	C597.150391,308.832275 600.689880,310.006897 606.029114,306.385834 
	C610.766541,303.172974 614.451233,298.807983 617.875732,294.290222 
	C626.045471,283.512451 633.389099,272.159790 639.370422,260.044678 
	C642.141052,254.432663 643.275452,248.034943 645.761658,242.255859 
	C651.272339,229.446640 659.939697,219.259430 672.798645,213.399170 
	C692.213074,204.551331 711.205017,211.844940 720.157898,231.254547 
	C722.256897,235.804977 723.823242,240.566528 724.295288,245.574188 
	C724.580688,248.601227 725.630127,249.475464 728.791626,248.911179 
	C743.373779,246.308487 756.791809,240.495712 770.133423,234.417450 
	C772.057129,233.541046 773.842407,232.097168 775.709717,234.834457 
	C777.651978,237.681656 777.225464,239.506271 774.394226,241.390076 
	C761.309509,250.096176 747.800537,258.070282 732.710388,262.682800 
	C726.814514,264.484924 723.867126,267.342194 722.183716,273.386292 
	C718.131042,287.937134 709.985535,299.920898 696.995178,308.205017 
	C675.463013,321.936371 650.145691,312.567566 642.602722,288.121490 
	C641.885132,285.795868 641.797791,283.209808 639.770020,280.710876 
	C633.649353,291.275940 626.777344,301.016968 619.081848,310.134796 
	C608.292786,322.918030 595.508301,332.576202 578.565674,335.792114 
	C567.481201,337.896088 559.681152,334.016479 555.247437,323.629303 
	C551.003906,313.687744 550.012390,303.039307 548.729065,292.491180 
	C545.394226,265.078888 547.088745,237.640533 548.569336,210.206604 
	C548.847656,205.050919 548.682983,199.871552 548.950867,194.714966 
	C549.138611,191.100983 547.511963,190.076004 544.159058,190.229599 
	C536.340820,190.587799 528.504028,190.577774 520.691772,191.018219 
	C516.339294,191.263611 514.301636,189.714081 513.986633,185.272293 
	C513.677917,180.920364 516.671692,180.946198 519.453064,180.522079 
	C527.663879,179.270035 535.849792,177.477844 544.106384,177.035614 
	C549.562256,176.743362 550.467590,173.982666 550.605713,169.845169 
	C551.127930,154.201538 552.249268,138.572891 551.792236,122.903694 
	C551.567505,115.197716 551.588013,115.155556 559.249756,114.510887 
	C567.954346,113.778481 576.196167,115.353264 583.571838,120.170532 
	C591.266602,125.196236 593.693115,133.042343 594.308411,141.651688 
	C594.928101,150.324478 593.691772,158.945999 593.268250,167.586716 
	C593.073730,171.554535 594.424927,172.927567 598.380859,172.727219 
	C606.193420,172.331528 613.985474,171.545166 621.837891,171.718872 
	C625.385681,171.797363 626.183838,173.408463 626.673889,176.497528 
	C627.211426,179.885773 626.150085,181.711075 622.933655,182.209930 
	C615.875977,183.304596 608.819031,184.471268 601.720764,185.220413 
	C592.510742,186.192459 592.494141,186.029968 592.222778,195.378082 
	C592.203430,196.044037 592.165955,196.709457 592.113770,197.847015 
M681.572266,264.217285 
	C681.018616,266.299194 680.398743,268.366089 679.923157,270.465698 
	C678.175964,278.178955 677.658020,285.888916 680.634399,293.436310 
	C683.395325,300.437134 689.788330,302.724152 695.872559,298.511353 
	C706.489014,291.160370 710.868103,280.128937 713.634644,267.417328 
	C702.755920,267.444397 692.978638,265.440155 684.571289,259.721313 
	C682.552185,260.572693 682.481018,262.229187 681.572266,264.217285 
M706.561218,248.956848 
	C708.738953,249.584473 710.918457,250.287064 713.328064,248.935516 
	C712.528564,244.449127 710.792603,240.750244 706.313660,239.503632 
	C702.745178,238.510422 699.171265,238.897934 696.585938,242.427292 
	C698.825073,245.982651 702.091675,247.693298 706.561218,248.956848 
z"/>
<path fill="#ffffff" opacity="1.000000" stroke="none" 
	d="
M499.842468,461.329559 
	C494.027924,462.919617 488.526581,462.693604 483.095337,461.898163 
	C478.360229,461.204651 474.011047,459.522308 472.266022,454.337708 
	C470.522491,449.157471 473.980957,446.339996 477.568726,443.469879 
	C474.547729,438.432404 475.074158,434.159210 480.416443,431.002747 
	C478.592682,428.144409 476.111389,426.030334 475.684143,422.683350 
	C474.435089,412.898743 481.669800,405.807190 491.984650,407.099335 
	C495.384796,407.525269 498.239044,408.465912 500.107269,404.034119 
	C501.319824,401.157654 504.350800,403.301147 506.312836,404.001862 
	C508.849854,404.907959 507.974396,407.537506 506.848755,408.556702 
	C503.375366,411.701691 504.335999,414.868927 505.351105,418.705170 
	C507.165466,425.562042 502.541565,431.791595 495.181213,433.200928 
	C493.391083,433.543671 491.543732,433.604431 489.718750,433.742950 
	C488.145294,433.862335 485.783813,433.157074 485.754333,435.492371 
	C485.721771,438.075226 488.268585,437.552887 489.994904,437.699982 
	C492.974915,437.953888 495.993195,437.921814 498.939667,438.373413 
	C505.670197,439.404999 508.608734,441.868134 509.286346,446.646606 
	C510.260040,453.512939 507.977234,457.728546 501.653503,460.716522 
	C501.204376,460.928741 500.719635,461.065613 499.842468,461.329559 
M491.321350,454.656433 
	C492.762177,454.374939 494.241516,454.216675 495.634430,453.781677 
	C497.489899,453.202148 498.931641,452.031525 498.679321,449.860046 
	C498.397919,447.438690 496.428467,447.377899 494.572571,447.305908 
	C492.763275,447.235748 490.945770,447.042847 489.145721,447.145874 
	C486.567535,447.293488 482.779602,445.908875 482.519287,450.098419 
	C482.292694,453.744904 485.794800,454.048889 488.532593,454.591095 
	C489.169220,454.717163 489.845612,454.642548 491.321350,454.656433 
M494.711578,416.775360 
	C492.291229,414.520660 489.527039,414.253540 487.099060,416.340607 
	C485.052429,418.099915 484.722534,420.667816 486.108154,423.160889 
	C487.427277,425.534271 489.641449,426.314728 492.071472,425.542175 
	C496.327179,424.189301 496.126282,420.885895 494.711578,416.775360 
z"/>
<path fill="#ffffff" opacity="1.000000" stroke="none" 
	d="
M401.534454,414.584045 
	C403.468872,414.568726 404.973175,414.454773 406.462402,414.558197 
	C409.551849,414.772858 410.616943,413.379700 410.397766,410.371063 
	C410.205414,407.730621 410.556335,405.053925 410.429138,402.404694 
	C410.124420,396.056854 413.070404,393.825195 419.127106,395.794952 
	C421.012970,396.408295 421.204346,397.769928 421.206146,399.287933 
	C421.223358,413.764191 421.185333,428.240540 421.219086,442.716736 
	C421.228912,446.939087 418.226379,446.323059 415.624268,446.358185 
	C412.958679,446.394196 410.061371,446.822906 410.290497,442.567596 
	C410.513672,438.421936 410.465027,434.262177 410.569641,430.109467 
	C410.675781,425.895081 409.167633,423.488556 404.432129,423.868988 
	C401.126190,424.134583 397.767761,424.083893 394.455627,423.850342 
	C390.229889,423.552399 388.843353,425.450104 389.052979,429.458313 
	C389.269867,433.606201 388.981354,437.778168 389.097229,441.934448 
	C389.208466,445.924744 386.933868,446.475403 383.646210,446.422302 
	C380.330505,446.368713 377.757538,446.180450 377.798462,441.773438 
	C377.928284,427.797180 377.932831,413.818329 377.809357,399.842041 
	C377.771149,395.515961 380.436523,395.651855 383.427399,395.621948 
	C386.485413,395.591370 389.214661,395.664429 389.094788,399.863373 
	C389.004669,403.022034 389.277008,406.198547 389.057037,409.343994 
	C388.791504,413.141235 390.065399,414.997162 394.112427,414.619507 
	C396.421783,414.404022 398.767944,414.582642 401.534454,414.584045 
z"/>
<path fill="#ffffff" opacity="1.000000" stroke="none" 
	d="
M523.792419,445.627167 
	C514.234619,442.361237 510.214417,428.800476 514.504272,417.941650 
	C518.023987,409.032349 528.144226,404.896759 538.373291,408.037323 
	C545.905396,410.349884 551.113647,421.015259 548.123718,427.976807 
	C547.193420,430.142761 545.222778,429.968353 543.446472,429.988007 
	C538.286804,430.045074 533.125610,429.961273 527.965210,429.980225 
	C526.645203,429.985077 525.136780,429.942535 524.578491,431.494873 
	C524.077637,432.887390 524.837585,434.074188 525.676331,435.153503 
	C528.416382,438.679474 534.689575,439.093445 538.665283,435.681305 
	C540.581848,434.036469 542.036377,433.463226 544.334106,434.909424 
	C548.365051,437.446503 548.770508,439.162933 545.166809,442.510529 
	C538.964111,448.272461 531.714844,448.265869 523.792419,445.627167 
M530.037292,415.526825 
	C526.929871,416.621857 524.456055,418.195587 524.855164,422.398804 
	C529.397583,422.626221 533.729980,423.253265 538.142639,421.995056 
	C537.806763,416.900391 534.889587,415.459717 530.037292,415.526825 
z"/>
<path fill="#ffffff" opacity="1.000000" stroke="none" 
	d="
M455.648010,420.933838 
	C455.649109,418.117188 455.780792,415.778442 455.621765,413.459656 
	C455.369751,409.784790 456.040802,407.580017 460.627594,407.574951 
	C465.239990,407.569855 466.296387,409.553497 466.221954,413.614716 
	C466.054230,422.764404 466.197449,431.919464 466.126648,441.071625 
	C466.109558,443.281403 466.681274,445.862335 463.148315,446.356079 
	C458.671387,446.981750 456.687531,446.215881 455.282166,442.589264 
	C454.229492,443.424957 453.286194,444.311493 452.215485,444.999939 
	C447.625793,447.951080 442.810303,448.068481 437.964478,445.765533 
	C433.331207,443.563599 431.820038,439.371185 431.717316,434.664429 
	C431.553955,427.179413 431.825562,419.683624 431.601471,412.201721 
	C431.478790,408.105255 433.650726,407.656708 436.901184,407.654480 
	C440.179077,407.652222 442.370209,408.210114 442.269897,412.234467 
	C442.108215,418.720001 442.263123,425.213257 442.272614,431.703247 
	C442.277130,434.787170 442.920563,437.438751 446.636566,437.818268 
	C450.325226,438.194977 453.195435,437.039276 454.541992,433.274780 
	C455.922241,429.416168 455.648010,425.406372 455.648010,420.933838 
z"/>
<path fill="#ffffff" opacity="1.000000" stroke="none" 
	d="
M333.150635,407.730957 
	C338.781036,406.333038 343.808105,406.965942 348.513031,409.517212 
	C350.261719,410.465454 353.193573,411.487457 351.328979,414.205627 
	C349.841461,416.374207 348.364624,419.989990 344.329437,417.465332 
	C342.341705,416.221741 340.122864,415.309601 337.743896,415.482483 
	C335.911346,415.615631 333.868622,416.179169 333.643188,418.401245 
	C333.436462,420.438782 335.253265,421.140594 336.872467,421.610016 
	C339.901154,422.487976 343.028778,423.062683 345.997559,424.100281 
	C350.658020,425.729187 353.409698,428.892212 353.456116,434.134399 
	C353.508392,440.040253 351.635681,443.378082 346.468597,445.561310 
	C339.145813,448.655273 332.152710,447.645142 325.542084,443.502350 
	C323.303192,442.099304 321.285583,440.374908 323.816986,437.546082 
	C325.738037,435.399323 327.362335,432.264008 330.937622,435.687500 
	C333.020355,437.681915 335.755432,438.629456 338.703613,438.597321 
	C340.862000,438.573792 342.868866,437.856171 343.234741,435.525238 
	C343.597931,433.211395 341.522522,432.503021 339.794678,431.938934 
	C337.119141,431.065430 334.329529,430.527435 331.683197,429.581635 
	C326.692444,427.797913 323.587799,424.496124 323.665588,418.840881 
	C323.749817,412.716217 327.381958,409.556488 333.150635,407.730957 
z"/>
<path fill="#ffffff" opacity="1.000000" stroke="none" 
	d="
M283.175568,399.897888 
	C285.533844,399.623230 287.487976,399.440430 289.545624,399.247955 
	C289.853912,400.134277 290.300110,400.764038 290.236755,401.337494 
	C289.692047,406.266876 291.632111,408.451904 296.733002,407.729675 
	C300.165253,407.243683 301.367523,409.028534 301.361267,412.414459 
	C301.354462,416.088989 299.187286,416.615021 296.487885,416.249573 
	C291.119202,415.522766 289.836945,418.120239 290.323090,422.882690 
	C290.658966,426.173248 290.261230,429.535126 290.534485,432.836700 
	C290.826599,436.366455 292.763855,438.626343 296.524261,437.403168 
	C300.588654,436.081085 300.888855,438.985748 301.801483,441.401520 
	C302.967194,444.487091 301.031097,445.535492 298.600128,446.384155 
	C289.344116,449.615479 281.680969,445.306885 280.380432,435.647278 
	C279.720123,430.743164 280.038361,425.709229 279.875458,420.735260 
	C279.817078,418.952118 280.155731,416.744171 277.623383,416.419067 
	C274.885376,416.067474 274.641510,414.346436 274.646881,412.179657 
	C274.652557,409.896637 274.672180,407.841827 277.762604,407.562683 
	C279.714996,407.386353 279.819183,405.648285 279.901978,404.139038 
	C280.011658,402.141235 280.656525,400.572815 283.175568,399.897888 
z"/>
<path fill="#ffffff" opacity="1.000000" stroke="none" 
	d="
M266.572083,396.084656 
	C268.254883,397.849609 268.067993,399.725494 268.070618,401.538452 
	C268.089630,414.677155 267.966553,427.817627 268.160278,440.953522 
	C268.220642,445.045868 266.879120,446.512573 262.724884,446.481720 
	C258.679810,446.451630 256.631134,445.651245 256.731110,440.980560 
	C256.990875,428.845215 256.806610,416.700500 256.810181,404.559509 
	C256.812927,395.202515 256.820129,395.202515 266.572083,396.084656 
z"/>
<path fill="#ffffff" opacity="1.000000" stroke="none" 
	d="
M306.803558,401.866821 
	C306.808594,396.195862 310.610626,393.827271 315.457733,395.899780 
	C316.796509,396.472198 317.112885,397.444458 317.034454,398.644897 
	C316.711975,403.580719 316.344025,408.513672 315.967773,413.445770 
	C315.755371,416.229584 314.373352,417.473572 311.436829,417.337250 
	C308.558716,417.203644 307.853302,415.614319 307.702087,413.176971 
	C307.477509,409.557678 307.126740,405.946228 306.803558,401.866821 
z"/>
</svg>